<svg width="24" height="15" viewBox="0 0 24 15" fill="none" xmlns="http://www.w3.org/2000/svg">
<g filter="url(#filter0_d_1_5)">
<path d="M12.722 0.225H14.394L12.007 6H10.555L9.675 3.646L8.795 6H7.343L4.956 0.225H6.617L8.168 4.339L8.718 2.733L7.684 0.225H9.125L9.675 1.963L10.225 0.225H11.655L10.632 2.733L11.182 4.339L12.722 0.225Z" fill="#4D5AE5"/>
<path d="M17.1617 6.11C16.6704 6.11 16.19 6.02933 15.7207 5.868C15.2514 5.70667 14.8554 5.46833 14.5327 5.153L15.1377 4.042C15.4897 4.29867 15.8307 4.493 16.1607 4.625C16.498 4.757 16.8134 4.823 17.1067 4.823C17.334 4.823 17.51 4.78633 17.6347 4.713C17.7594 4.63967 17.8217 4.526 17.8217 4.372C17.8217 4.262 17.785 4.17767 17.7117 4.119C17.6384 4.053 17.5247 3.99433 17.3707 3.943C17.224 3.89167 17.0407 3.83667 16.8207 3.778C16.3807 3.63133 16.014 3.48833 15.7207 3.349C15.4274 3.20967 15.2074 3.041 15.0607 2.843C14.914 2.63767 14.8407 2.37367 14.8407 2.051C14.8407 1.66233 14.936 1.325 15.1267 1.039C15.3247 0.745666 15.6034 0.518333 15.9627 0.357C16.322 0.195666 16.751 0.115 17.2497 0.115C17.6457 0.115 18.0307 0.177333 18.4047 0.302C18.786 0.426666 19.1417 0.635666 19.4717 0.929L18.7897 2.029C18.4597 1.80167 18.1664 1.63667 17.9097 1.534C17.653 1.43133 17.4037 1.38 17.1617 1.38C17.037 1.38 16.9234 1.39467 16.8207 1.424C16.718 1.45333 16.6337 1.50467 16.5677 1.578C16.509 1.644 16.4797 1.732 16.4797 1.842C16.4797 1.952 16.509 2.04 16.5677 2.106C16.6337 2.172 16.7327 2.23067 16.8647 2.282C17.004 2.326 17.1764 2.381 17.3817 2.447C17.8584 2.58633 18.2544 2.72933 18.5697 2.876C18.885 3.01533 19.1197 3.19133 19.2737 3.404C19.435 3.60933 19.5157 3.88433 19.5157 4.229C19.5157 4.81567 19.303 5.27767 18.8777 5.615C18.4597 5.945 17.8877 6.11 17.1617 6.11Z" fill="black"/>
</g>
<defs>
<filter id="filter0_d_1_5" x="0.956001" y="0.115005" width="22.5597" height="13.995" filterUnits="userSpaceOnUse" color-interpolation-filters="sRGB">
<feFlood flood-opacity="0" result="BackgroundImageFix"/>
<feColorMatrix in="SourceAlpha" type="matrix" values="0 0 0 0 0 0 0 0 0 0 0 0 0 0 0 0 0 0 127 0" result="hardAlpha"/>
<feOffset dy="4"/>
<feGaussianBlur stdDeviation="2"/>
<feComposite in2="hardAlpha" operator="out"/>
<feColorMatrix type="matrix" values="0 0 0 0 0 0 0 0 0 0 0 0 0 0 0 0 0 0 0.25 0"/>
<feBlend mode="normal" in2="BackgroundImageFix" result="effect1_dropShadow_1_5"/>
<feBlend mode="normal" in="SourceGraphic" in2="effect1_dropShadow_1_5" result="shape"/>
</filter>
</defs>
</svg>
