<svg width="40" height="22" viewBox="0 0 40 22" fill="none" xmlns="http://www.w3.org/2000/svg">
<g filter="url(#filter0_d_1_5)">
<path d="M21.146 0.924999H24.642L19.651 13H16.615L14.775 8.078L12.935 13H9.899L4.908 0.924999H8.381L11.624 9.527L12.774 6.169L10.612 0.924999H13.625L14.775 4.559L15.925 0.924999H18.915L16.776 6.169L17.926 9.527L21.146 0.924999Z" fill="#4D5AE5"/>
<path d="M30.429 13.23C29.4017 13.23 28.3973 13.0613 27.416 12.724C26.4347 12.3867 25.6067 11.8883 24.932 11.229L26.197 8.906C26.933 9.44267 27.646 9.849 28.336 10.125C29.0413 10.401 29.7007 10.539 30.314 10.539C30.7893 10.539 31.1573 10.4623 31.418 10.309C31.6787 10.1557 31.809 9.918 31.809 9.596C31.809 9.366 31.7323 9.18967 31.579 9.067C31.4257 8.929 31.188 8.80633 30.866 8.699C30.5593 8.59167 30.176 8.47667 29.716 8.354C28.796 8.04733 28.0293 7.74833 27.416 7.457C26.8027 7.16567 26.3427 6.813 26.036 6.399C25.7293 5.96967 25.576 5.41767 25.576 4.743C25.576 3.93033 25.7753 3.225 26.174 2.627C26.588 2.01367 27.1707 1.53833 27.922 1.201C28.6733 0.863666 29.5703 0.694999 30.613 0.694999C31.441 0.694999 32.246 0.825333 33.028 1.086C33.8253 1.34667 34.569 1.78367 35.259 2.397L33.833 4.697C33.143 4.22167 32.5297 3.87667 31.993 3.662C31.4563 3.44733 30.935 3.34 30.429 3.34C30.1683 3.34 29.9307 3.37067 29.716 3.432C29.5013 3.49333 29.325 3.60067 29.187 3.754C29.0643 3.892 29.003 4.076 29.003 4.306C29.003 4.536 29.0643 4.72 29.187 4.858C29.325 4.996 29.532 5.11867 29.808 5.226C30.0993 5.318 30.4597 5.433 30.889 5.571C31.8857 5.86233 32.7137 6.16133 33.373 6.468C34.0323 6.75933 34.523 7.12733 34.845 7.572C35.1823 8.00133 35.351 8.57633 35.351 9.297C35.351 10.5237 34.9063 11.4897 34.017 12.195C33.143 12.885 31.947 13.23 30.429 13.23Z" fill="black"/>
</g>
<defs>
<filter id="filter0_d_1_5" x="0.907997" y="0.695007" width="38.443" height="20.535" filterUnits="userSpaceOnUse" color-interpolation-filters="sRGB">
<feFlood flood-opacity="0" result="BackgroundImageFix"/>
<feColorMatrix in="SourceAlpha" type="matrix" values="0 0 0 0 0 0 0 0 0 0 0 0 0 0 0 0 0 0 127 0" result="hardAlpha"/>
<feOffset dy="4"/>
<feGaussianBlur stdDeviation="2"/>
<feComposite in2="hardAlpha" operator="out"/>
<feColorMatrix type="matrix" values="0 0 0 0 0 0 0 0 0 0 0 0 0 0 0 0 0 0 0.25 0"/>
<feBlend mode="normal" in2="BackgroundImageFix" result="effect1_dropShadow_1_5"/>
<feBlend mode="normal" in="SourceGraphic" in2="effect1_dropShadow_1_5" result="shape"/>
</filter>
</defs>
</svg>
