<svg width="512" height="216" viewBox="0 0 512 216" fill="none" xmlns="http://www.w3.org/2000/svg">
<g filter="url(#filter0_d_1_5)">
<path d="M272.76 4.49999H330.52L248.06 204H197.9L167.5 122.68L137.1 204H86.94L4.48 4.49999H61.86L115.44 146.62L134.44 91.14L98.72 4.49999H148.5L167.5 64.54L186.5 4.49999H235.9L200.56 91.14L219.56 146.62L272.76 4.49999Z" fill="#4D5AE5"/>
<path d="M426.132 207.8C409.158 207.8 392.565 205.013 376.352 199.44C360.138 193.867 346.458 185.633 335.312 174.74L356.212 136.36C368.372 145.227 380.152 151.94 391.552 156.5C403.205 161.06 414.098 163.34 424.232 163.34C432.085 163.34 438.165 162.073 442.472 159.54C446.778 157.007 448.932 153.08 448.932 147.76C448.932 143.96 447.665 141.047 445.132 139.02C442.598 136.74 438.672 134.713 433.352 132.94C428.285 131.167 421.952 129.267 414.352 127.24C399.152 122.173 386.485 117.233 376.352 112.42C366.218 107.607 358.618 101.78 353.552 94.94C348.485 87.8467 345.952 78.7267 345.952 67.58C345.952 54.1533 349.245 42.5 355.832 32.62C362.672 22.4867 372.298 14.6333 384.712 9.06C397.125 3.48666 411.945 0.69999 429.172 0.69999C442.852 0.69999 456.152 2.85333 469.072 7.16C482.245 11.4667 494.532 18.6867 505.932 28.82L482.372 66.82C470.972 58.9667 460.838 53.2667 451.972 49.72C443.105 46.1733 434.492 44.4 426.132 44.4C421.825 44.4 417.898 44.9067 414.352 45.92C410.805 46.9333 407.892 48.7067 405.612 51.24C403.585 53.52 402.572 56.56 402.572 60.36C402.572 64.16 403.585 67.2 405.612 69.48C407.892 71.76 411.312 73.7867 415.872 75.56C420.685 77.08 426.638 78.98 433.732 81.26C450.198 86.0733 463.878 91.0133 474.772 96.08C485.665 100.893 493.772 106.973 499.092 114.32C504.665 121.413 507.452 130.913 507.452 142.82C507.452 163.087 500.105 179.047 485.412 190.7C470.972 202.1 451.212 207.8 426.132 207.8Z" fill="black"/>
</g>
<defs>
<filter id="filter0_d_1_5" x="0.480003" y="0.699997" width="510.972" height="215.1" filterUnits="userSpaceOnUse" color-interpolation-filters="sRGB">
<feFlood flood-opacity="0" result="BackgroundImageFix"/>
<feColorMatrix in="SourceAlpha" type="matrix" values="0 0 0 0 0 0 0 0 0 0 0 0 0 0 0 0 0 0 127 0" result="hardAlpha"/>
<feOffset dy="4"/>
<feGaussianBlur stdDeviation="2"/>
<feComposite in2="hardAlpha" operator="out"/>
<feColorMatrix type="matrix" values="0 0 0 0 0 0 0 0 0 0 0 0 0 0 0 0 0 0 0.25 0"/>
<feBlend mode="normal" in2="BackgroundImageFix" result="effect1_dropShadow_1_5"/>
<feBlend mode="normal" in="SourceGraphic" in2="effect1_dropShadow_1_5" result="shape"/>
</filter>
</defs>
</svg>
